<?xml version="1.0" standalone="no"?>
<!DOCTYPE svg PUBLIC "-//W3C//DTD SVG 20010904//EN"
 "http://www.w3.org/TR/2001/REC-SVG-20010904/DTD/svg10.dtd">
<svg version="1.0" xmlns="http://www.w3.org/2000/svg"
 width="476.000000pt" height="476.000000pt" viewBox="0 0 476.000000 476.000000"
 preserveAspectRatio="xMidYMid meet">
<metadata>
Created by potrace 1.14, written by Peter Selinger 2001-2017
</metadata>
<g transform="translate(0.000000,476.000000) scale(0.100000,-0.100000)"
fill="#000000" stroke="none">
<path d="M2023 4734 c-131 -17 -351 -71 -478 -119 -331 -123 -611 -309 -876
-582 -367 -379 -573 -793 -646 -1298 -12 -85 -17 -186 -17 -350 0 -243 9 -340
50 -534 141 -662 625 -1280 1252 -1600 282 -143 552 -215 910 -243 310 -24
707 33 997 142 210 78 461 223 650 374 96 78 284 265 362 361 165 204 332 502
402 712 202 612 160 1299 -112 1838 -187 372 -508 729 -863 958 -279 180 -598
297 -934 343 -133 17 -555 17 -697 -2z m667 -54 c501 -61 952 -287 1336 -668
169 -168 308 -355 418 -563 226 -427 304 -975 215 -1499 -115 -676 -572 -1293
-1209 -1632 -488 -260 -1123 -326 -1690 -177 -778 206 -1444 882 -1633 1659
-49 200 -61 316 -61 570 0 252 13 382 59 575 151 639 624 1220 1240 1526 207
103 484 186 691 208 116 12 536 13 634 1z"/>
<path d="M1597 3459 c-70 -16 -151 -62 -203 -114 -108 -108 -148 -209 -142
-355 8 -156 62 -258 186 -352 90 -68 172 -91 305 -86 90 3 110 8 169 36 291
141 362 501 146 737 -90 99 -201 146 -341 144 -45 -1 -99 -5 -120 -10z"/>
<path d="M2987 3459 c-70 -16 -151 -62 -203 -114 -108 -107 -148 -208 -142
-355 3 -84 8 -104 40 -171 80 -171 238 -269 430 -269 136 0 252 52 347 156
162 177 159 436 -7 616 -96 103 -203 149 -345 147 -45 -1 -99 -5 -120 -10z"/>
<path d="M1456 1707 c-41 -30 -19 -75 137 -285 148 -198 325 -359 483 -440
101 -51 173 -67 304 -66 116 0 131 3 212 33 166 62 349 206 501 394 79 98 187
249 211 295 28 56 -21 99 -80 69 -58 -29 -293 -100 -434 -130 -141 -30 -152
-31 -410 -32 -237 0 -278 3 -384 23 -142 28 -323 79 -426 121 -85 35 -90 36
-114 18z m1606 -234 c-172 -226 -370 -383 -551 -437 -31 -9 -90 -16 -139 -16
-218 0 -439 143 -671 435 -40 49 -68 91 -63 93 5 1 48 -9 96 -23 339 -98 682
-119 1006 -61 134 24 291 61 350 84 14 5 27 8 28 7 2 -2 -23 -39 -56 -82z"/>
</g>
</svg>
