<?xml version="1.0" encoding="UTF-8" ?>
<!DOCTYPE svg PUBLIC "-//W3C//DTD SVG 1.1//EN" "http://www.w3.org/Graphics/SVG/1.1/DTD/svg11.dtd">
<svg width="702pt" height="808pt" viewBox="0 0 702 808" version="1.1" xmlns="http://www.w3.org/2000/svg">
<g id="#000000ff">
<path fill="#000000" opacity="1.00" d=" M 385.83 0.72 C 388.55 1.10 391.80 0.93 393.75 3.25 C 396.75 6.45 397.11 11.08 397.75 15.21 C 399.16 26.09 394.33 36.41 390.14 46.15 C 386.82 54.18 379.32 60.15 378.01 69.05 C 376.58 77.52 373.53 85.61 372.04 94.08 C 370.44 101.54 370.71 109.23 369.59 116.76 C 369.09 120.42 368.15 124.15 369.00 127.83 C 370.37 133.81 371.57 140.00 374.74 145.34 C 381.03 156.01 387.26 166.71 393.66 177.31 C 399.81 187.28 404.22 198.17 409.27 208.71 C 413.56 217.71 416.19 227.40 420.65 236.33 C 421.44 238.12 422.49 239.89 422.66 241.88 C 421.72 249.24 417.11 256.24 410.06 259.02 C 405.03 256.33 399.29 253.88 396.46 248.59 C 387.09 230.81 383.42 210.64 374.16 192.80 C 367.91 182.94 361.70 172.86 353.38 164.57 C 349.76 160.85 346.00 157.11 341.31 154.76 C 334.24 151.17 326.86 148.14 320.20 143.78 C 316.28 141.46 312.81 138.36 308.60 136.56 C 306.95 135.61 305.10 137.18 304.79 138.82 C 301.01 149.90 302.52 161.90 304.81 173.13 C 307.11 184.70 315.49 193.52 322.27 202.70 C 329.62 212.67 336.66 222.87 344.76 232.26 C 351.56 240.82 357.04 250.42 364.73 258.29 C 369.38 263.75 375.39 267.83 380.05 273.28 C 373.33 271.19 367.45 267.15 361.56 263.42 C 353.60 258.51 348.36 250.57 342.64 243.40 C 335.19 233.51 326.78 224.36 319.91 214.04 C 312.71 204.67 306.10 194.67 297.22 186.76 C 294.16 183.94 290.03 182.74 286.86 180.11 C 283.21 176.42 282.86 170.87 282.82 165.98 C 282.88 158.45 282.82 150.82 284.54 143.44 C 286.65 134.74 292.44 127.58 295.17 119.12 C 290.85 112.29 286.13 105.65 282.79 98.25 C 277.16 86.72 274.42 74.11 271.16 61.78 C 270.04 57.99 270.85 54.08 270.82 50.23 C 270.17 47.85 268.43 45.97 267.00 44.02 C 262.23 38.31 258.12 32.06 254.33 25.66 C 250.31 19.30 250.24 11.47 246.56 4.95 C 254.83 7.64 259.80 15.43 262.82 23.13 C 264.65 28.03 267.19 32.61 269.82 37.12 C 272.92 42.37 273.73 48.65 277.19 53.73 C 281.32 59.98 282.19 67.56 284.48 74.54 C 287.90 84.38 291.84 94.04 296.58 103.32 C 298.91 107.25 297.73 111.87 297.33 116.12 C 303.99 108.34 306.89 98.37 311.43 89.39 C 314.29 83.66 316.24 77.37 320.40 72.39 C 325.44 66.08 333.07 62.48 337.92 55.99 C 341.63 51.16 345.64 46.33 347.51 40.42 C 349.66 34.53 348.49 28.11 349.98 22.08 C 351.30 22.04 352.61 22.00 353.93 21.95 C 357.36 26.71 357.58 32.88 356.41 38.44 C 354.79 47.89 350.19 56.70 343.73 63.74 C 339.49 68.23 337.74 74.32 334.27 79.33 C 330.65 84.62 329.20 91.10 325.14 96.12 C 318.01 106.53 307.94 114.64 301.70 125.70 C 296.60 134.97 296.01 145.75 293.97 155.93 C 293.17 161.01 291.72 165.98 291.18 171.10 C 290.83 173.76 292.54 176.01 293.81 178.17 C 294.82 172.16 295.54 166.09 297.25 160.22 C 299.23 152.03 299.82 143.58 301.33 135.31 C 303.35 129.82 308.49 126.33 312.98 122.95 C 314.95 121.10 317.40 122.83 319.36 123.74 C 326.78 127.81 334.08 132.32 342.27 134.72 C 346.33 135.81 349.92 138.18 352.73 141.29 C 361.20 150.34 366.99 161.45 372.79 172.31 C 378.18 182.07 385.07 190.96 389.87 201.07 C 394.46 210.80 399.70 220.38 401.91 231.03 C 402.71 235.69 404.99 240.13 409.18 242.60 C 409.36 239.05 409.19 235.43 407.99 232.05 C 405.08 223.48 402.51 214.74 398.42 206.63 C 393.34 194.81 388.02 182.96 380.42 172.51 C 371.59 159.91 364.61 146.15 356.72 132.97 C 354.04 133.08 351.37 133.25 348.70 133.45 C 350.44 123.01 352.11 112.56 353.01 102.01 C 353.78 91.59 357.95 81.93 361.03 72.08 C 363.27 64.70 366.77 57.66 371.76 51.74 C 376.40 46.21 380.20 40.05 383.76 33.79 C 386.37 28.96 388.15 23.56 388.11 18.02 C 388.35 12.14 386.13 6.55 385.83 0.72 M 361.91 109.58 C 364.80 105.86 366.20 101.26 367.05 96.69 C 363.14 99.76 361.97 104.84 361.91 109.58 Z" />
<path fill="#000000" opacity="1.00" d=" M 209.43 95.40 C 211.06 91.70 214.27 89.07 217.29 86.53 C 219.61 95.48 214.98 104.08 214.91 112.99 C 214.72 117.44 215.36 121.93 216.91 126.11 C 221.03 136.95 226.74 147.14 233.33 156.67 C 237.52 162.75 243.35 167.38 249.04 171.97 C 257.59 178.76 268.57 180.93 278.10 185.91 C 285.13 189.62 292.95 192.56 298.22 198.79 C 305.79 207.66 312.50 217.20 319.45 226.55 C 324.72 233.57 330.78 239.96 335.92 247.08 C 339.87 252.39 344.39 257.26 349.17 261.83 C 355.38 267.36 362.72 271.54 370.40 274.68 C 373.54 276.20 377.21 277.84 378.55 281.33 C 379.84 284.48 380.86 287.75 382.61 290.69 C 383.42 285.26 382.98 279.75 381.94 274.39 C 387.04 270.94 392.55 268.03 398.59 266.61 C 407.02 264.52 415.96 261.60 421.72 254.70 C 426.08 248.86 427.26 241.42 428.57 234.44 C 429.84 227.77 432.26 221.41 433.81 214.81 C 435.74 207.11 436.23 198.96 439.78 191.74 C 443.14 185.13 448.53 179.90 453.62 174.61 C 458.43 169.45 464.73 166.13 470.90 162.86 C 478.80 158.35 487.46 155.45 496.23 153.13 C 506.80 149.47 517.84 146.50 527.23 140.21 C 530.09 138.23 533.38 136.99 536.89 136.97 C 537.39 140.56 536.50 144.26 533.45 146.47 C 526.45 152.11 517.42 154.15 509.13 157.13 C 495.62 161.33 482.25 166.51 470.49 174.49 C 464.63 178.66 461.09 185.10 456.26 190.28 C 448.92 198.13 447.62 209.15 445.10 219.12 C 441.70 230.35 436.94 241.11 433.18 252.22 C 431.64 256.85 428.43 260.63 425.23 264.21 C 421.68 268.14 417.35 271.44 412.38 273.34 C 407.08 275.45 401.27 276.33 396.36 279.35 C 392.56 281.58 389.27 284.59 386.49 287.99 C 398.83 285.72 410.00 279.34 422.42 277.35 C 429.59 276.14 436.63 273.81 443.98 273.94 C 450.86 274.02 457.95 273.28 464.63 275.36 C 469.61 276.86 474.73 278.32 480.00 278.06 C 486.00 278.03 491.80 275.83 497.82 276.18 C 503.48 276.61 508.99 278.36 514.02 280.96 C 521.31 284.73 528.79 288.40 536.87 290.16 C 543.07 291.57 549.48 290.04 555.70 291.32 C 566.82 293.97 578.78 295.73 588.14 302.83 C 593.10 306.97 596.94 312.37 599.94 318.06 C 601.90 321.38 600.73 325.26 599.76 328.69 C 594.04 324.89 591.14 318.39 586.29 313.71 C 579.07 305.86 568.68 301.47 558.12 300.73 C 549.89 299.44 541.41 300.92 533.30 298.79 C 517.15 295.18 503.75 282.92 486.64 282.89 C 490.23 287.29 495.07 290.36 500.05 292.96 C 504.18 295.13 508.97 295.11 513.47 295.94 C 512.00 297.91 510.76 300.23 508.61 301.57 C 504.75 303.46 500.23 303.43 496.39 305.38 C 494.44 306.57 493.46 308.75 492.24 310.58 C 498.43 309.09 504.53 306.69 511.00 306.86 C 516.08 306.76 520.89 308.72 525.94 308.92 C 531.13 309.19 536.47 308.92 541.48 310.57 C 546.36 312.22 550.44 315.47 554.65 318.34 C 560.80 322.55 567.74 325.37 574.43 328.57 C 588.93 335.87 604.57 340.91 618.35 349.63 C 623.13 352.59 627.25 357.31 627.69 363.14 C 627.76 367.55 624.83 372.75 620.00 373.00 C 614.62 372.82 612.44 365.89 606.98 365.89 C 599.64 365.61 592.78 369.02 586.55 372.53 C 581.17 375.90 575.61 378.94 570.19 382.22 C 562.39 387.02 558.76 396.11 551.38 401.39 C 548.07 403.88 544.53 406.10 540.67 407.62 C 533.92 410.21 527.12 412.98 519.83 413.51 C 521.37 420.24 525.27 426.00 527.68 432.39 C 529.54 436.86 528.66 442.51 524.86 445.69 C 522.52 446.52 519.51 445.44 517.72 447.59 C 513.25 452.16 508.70 456.67 504.39 461.40 C 499.72 467.05 493.98 471.83 490.20 478.20 C 486.03 485.16 479.84 490.51 474.76 496.75 C 469.97 502.68 463.02 506.09 456.29 509.29 C 449.92 512.29 442.85 513.14 435.95 514.04 C 430.66 514.82 425.62 512.65 420.56 511.51 C 416.08 510.48 411.58 509.52 407.18 508.20 C 404.58 512.30 403.32 517.02 401.30 521.39 C 397.53 527.91 390.30 531.04 384.77 535.77 C 380.67 539.31 375.86 542.22 372.79 546.80 C 370.34 550.71 370.46 555.51 369.80 559.93 C 368.93 567.55 364.90 574.38 364.04 582.00 C 362.72 592.94 361.09 603.95 361.90 615.00 C 362.66 627.36 357.32 638.98 356.36 651.14 C 356.98 664.06 357.27 677.04 359.08 689.87 C 359.57 692.44 359.83 695.33 361.69 697.35 C 370.12 699.24 378.93 696.89 387.44 698.61 C 398.84 700.98 410.49 702.11 421.75 705.22 C 432.80 707.41 442.94 712.59 453.86 715.25 C 463.00 718.06 472.96 715.91 481.85 719.89 C 478.03 714.07 475.03 707.73 470.90 702.11 C 468.90 699.03 466.44 695.89 466.16 692.11 C 466.59 688.59 469.87 686.68 472.74 685.25 C 479.49 695.45 484.49 706.85 487.29 718.77 C 487.57 721.46 489.93 722.68 492.13 723.70 C 492.68 721.12 493.19 718.40 492.21 715.86 C 489.72 708.04 485.70 700.83 482.89 693.13 C 481.33 688.66 478.42 684.78 477.10 680.24 C 479.32 676.89 482.91 674.85 486.13 672.60 C 488.27 674.17 490.63 675.77 491.60 678.38 C 497.93 693.63 501.89 710.04 511.03 723.99 C 512.31 725.74 514.14 728.18 516.63 727.54 C 522.04 726.03 526.54 722.10 529.23 717.22 C 532.21 711.84 535.82 706.38 536.02 700.02 C 536.36 690.64 538.49 681.34 537.56 671.93 C 540.40 673.46 543.63 674.72 545.53 677.50 C 549.42 682.80 549.63 689.70 549.99 696.01 C 550.25 706.34 543.16 714.56 537.36 722.36 C 535.67 725.01 532.61 725.94 529.81 726.90 C 532.01 729.58 534.44 732.08 537.07 734.35 C 537.60 733.36 538.15 732.39 538.69 731.42 C 537.75 730.14 536.82 728.86 535.90 727.59 C 539.28 722.23 544.68 718.53 550.66 716.61 C 555.31 722.51 559.60 728.75 564.85 734.17 C 572.10 740.57 581.68 743.24 590.59 746.49 C 594.71 747.97 598.11 750.80 601.34 753.68 C 607.25 758.95 614.53 762.33 620.57 767.42 C 622.79 769.19 624.87 771.27 627.53 772.38 C 631.15 773.31 634.96 772.74 638.62 773.52 C 642.24 774.44 644.75 777.59 648.28 778.74 C 653.16 779.22 657.99 777.44 662.89 778.11 C 668.60 779.05 673.85 783.01 675.38 788.76 C 669.03 788.98 662.67 789.25 656.43 790.49 C 645.26 792.69 633.84 792.84 622.52 793.49 C 617.21 793.76 611.86 792.53 606.61 793.68 C 601.84 794.70 596.95 795.41 592.08 794.84 C 580.37 793.53 568.45 793.31 556.85 795.62 C 547.71 795.90 538.37 798.26 529.37 795.66 C 521.82 793.60 513.91 793.61 506.17 794.30 C 498.45 795.13 490.67 794.93 482.95 795.84 C 474.21 796.36 465.49 798.45 456.71 797.41 C 449.67 796.75 442.58 797.25 435.56 796.43 C 430.39 795.82 425.23 796.63 420.10 797.17 C 413.59 797.95 406.95 797.85 400.58 799.56 C 395.96 800.74 391.16 801.30 386.43 800.59 C 379.97 799.65 373.40 799.73 367.00 800.99 C 360.72 802.20 354.25 801.63 348.00 803.02 C 345.25 803.58 342.52 804.24 339.74 804.60 C 325.25 805.72 310.69 806.66 296.16 805.69 C 290.35 805.12 284.52 806.04 278.71 805.40 C 266.69 804.26 254.58 805.82 242.57 804.45 C 237.13 803.85 231.63 803.74 226.17 804.28 C 215.16 805.61 204.05 804.81 192.99 804.94 C 184.97 804.84 177.19 807.02 169.29 808.00 L 161.78 808.00 C 159.06 807.28 156.32 806.34 153.47 806.54 C 142.30 807.30 131.12 806.23 119.97 805.70 C 114.50 805.47 109.11 803.92 103.61 804.51 C 88.44 806.18 73.31 803.41 58.17 802.70 C 48.11 801.23 37.87 801.15 27.92 799.07 C 21.90 798.01 17.75 792.95 15.29 787.71 C 13.42 783.61 11.06 779.57 10.33 775.08 C 11.08 771.11 13.99 767.89 14.57 763.87 C 15.28 760.77 15.08 756.99 17.81 754.82 C 22.83 750.39 29.52 748.91 35.62 746.59 C 39.19 745.31 42.53 743.49 46.06 742.12 C 55.81 738.28 66.84 740.04 76.38 743.64 C 84.86 746.96 89.21 755.97 97.31 759.77 C 105.96 759.44 113.57 754.23 122.12 753.18 C 133.03 751.89 143.87 754.69 154.24 757.81 C 160.88 759.94 164.17 766.63 168.49 771.55 C 172.40 776.08 178.26 778.04 183.62 780.28 C 189.73 782.46 195.74 785.07 202.15 786.31 C 200.10 783.59 198.27 780.23 194.85 779.06 C 187.98 776.44 180.71 774.51 174.54 770.37 C 171.61 768.44 169.82 765.36 168.08 762.41 C 172.87 759.78 178.21 757.47 183.81 758.46 C 189.19 759.42 194.95 760.46 199.48 763.67 C 199.36 768.37 197.80 772.91 197.66 777.62 C 201.90 773.47 203.67 766.98 209.28 764.29 C 215.37 761.13 222.07 758.68 229.02 758.84 C 234.50 758.85 239.61 761.09 244.92 762.14 C 250.85 763.27 254.47 768.54 258.82 772.22 C 263.65 776.70 270.24 778.17 276.07 780.87 C 285.40 785.12 295.28 788.03 304.54 792.45 C 307.55 793.68 310.48 795.63 313.82 795.70 C 318.60 794.80 322.71 791.99 327.14 790.13 C 334.13 786.70 342.54 785.29 347.57 778.79 C 338.24 777.77 330.34 783.45 322.51 787.58 C 318.92 789.46 314.83 791.92 310.66 790.38 C 302.98 787.82 295.96 783.69 288.54 780.51 C 284.22 778.67 280.03 776.51 276.16 773.86 C 269.44 769.58 263.55 763.92 256.07 760.91 C 248.83 757.92 241.63 754.51 233.87 753.17 C 224.70 751.65 216.27 756.52 207.33 757.47 C 199.82 758.95 192.60 755.78 185.28 754.69 C 179.66 753.60 173.93 754.06 168.26 754.25 C 163.71 754.46 159.36 752.88 154.91 752.26 C 150.88 751.67 146.82 751.18 142.89 750.10 C 137.37 748.64 131.83 746.57 126.03 747.00 C 117.99 747.41 110.43 751.87 102.28 750.76 C 95.38 748.67 90.30 743.04 83.67 740.33 C 76.74 737.44 69.46 734.95 61.93 734.35 C 52.00 734.63 42.17 737.04 33.08 741.02 C 26.33 743.89 18.63 745.91 13.78 751.81 C 9.54 756.73 9.19 763.51 7.27 769.46 C 5.16 762.86 4.89 755.90 3.90 749.09 C 2.91 742.12 1.93 735.16 1.31 728.15 C 5.74 725.23 10.35 721.78 15.93 721.97 C 23.51 721.95 31.27 721.29 38.67 723.32 C 46.56 725.56 54.91 725.06 62.81 727.25 C 72.63 730.12 82.93 728.74 93.00 728.97 C 101.59 728.72 110.26 729.16 118.60 731.45 C 128.94 734.06 139.80 732.61 150.21 734.90 C 157.39 736.57 164.80 737.99 172.19 737.18 C 177.11 736.65 180.49 732.47 185.13 731.17 C 189.00 730.19 193.02 730.29 196.97 729.93 C 211.70 728.47 226.80 728.10 241.27 731.67 C 249.06 733.46 257.09 733.44 265.02 734.10 C 269.94 734.49 274.46 736.67 279.28 737.58 C 286.89 738.88 294.22 741.45 301.91 742.29 C 310.31 744.04 318.58 746.46 327.05 747.81 C 333.30 748.36 337.02 741.96 342.80 740.81 C 348.93 739.57 355.24 739.79 361.44 739.22 C 355.53 745.51 349.18 751.92 340.89 754.93 C 334.53 757.52 327.40 756.53 321.00 758.99 C 311.52 761.98 301.75 766.93 291.57 764.38 C 283.96 762.46 276.48 759.76 268.57 759.39 C 271.91 762.28 275.73 764.56 279.81 766.25 C 284.68 768.27 289.48 771.25 294.95 771.01 C 302.59 770.71 309.65 767.33 317.16 766.25 C 323.09 765.34 329.26 765.24 334.83 762.80 C 341.98 759.58 349.02 756.01 355.40 751.40 C 360.51 747.94 365.57 743.54 372.02 743.15 C 377.99 742.85 383.99 742.94 389.89 741.86 C 395.04 740.90 400.34 740.70 405.46 741.98 C 401.06 746.31 394.73 749.09 392.58 755.29 C 399.07 752.28 404.69 747.33 411.85 745.87 C 422.71 743.62 433.94 745.45 444.44 748.55 C 450.55 750.41 455.76 745.80 461.35 744.25 C 465.26 742.69 469.44 743.84 473.42 744.40 C 478.62 745.23 483.96 744.74 489.13 745.90 C 493.31 746.76 497.19 748.70 501.40 749.49 C 506.12 750.37 510.98 749.59 515.71 750.42 C 519.21 751.19 522.39 752.93 525.65 754.38 C 530.75 756.81 536.16 758.47 541.44 760.47 C 546.44 762.19 551.58 764.05 556.95 763.85 C 562.21 763.67 567.61 763.54 572.63 765.40 C 576.78 766.86 580.18 769.75 583.73 772.26 C 588.66 775.95 594.24 778.92 598.27 783.69 C 600.53 786.39 602.87 789.11 606.05 790.75 C 606.85 788.41 607.21 785.71 605.20 783.86 C 599.50 777.77 592.77 772.64 585.65 768.31 C 580.84 765.32 575.99 762.22 570.57 760.46 C 562.49 757.83 553.72 760.25 545.70 757.38 C 537.84 755.16 531.47 749.63 523.65 747.31 C 514.92 744.63 506.25 741.10 496.99 740.93 C 489.12 740.86 481.97 736.39 474.05 736.99 C 463.80 737.37 454.32 742.56 443.99 742.12 C 436.96 742.27 430.41 739.40 423.56 738.40 C 417.78 737.52 412.00 740.21 406.26 738.81 C 402.63 737.95 398.99 736.95 395.62 735.33 C 391.68 733.47 389.21 729.75 386.39 726.61 C 381.48 720.84 375.36 716.30 370.28 710.71 C 367.49 707.85 365.04 704.58 361.70 702.34 C 358.75 702.64 355.66 704.23 354.36 707.01 C 355.57 708.79 357.70 709.54 359.44 710.68 C 362.98 712.62 365.96 715.38 368.79 718.22 C 375.19 724.55 382.51 729.91 388.74 736.43 C 381.91 739.92 374.12 737.23 367.07 735.92 C 355.56 732.98 343.77 731.40 331.99 729.99 C 325.27 729.32 319.02 726.03 314.40 721.14 C 321.17 719.60 328.31 720.32 334.91 717.96 C 340.26 716.12 347.15 714.29 348.48 707.88 C 345.74 707.65 342.97 708.02 340.65 709.58 C 332.99 714.24 324.12 716.57 315.21 717.12 C 313.81 709.16 313.16 701.09 312.95 693.02 C 320.29 692.65 327.60 693.39 334.85 694.47 C 335.03 698.89 335.07 703.32 335.46 707.74 C 340.09 703.11 340.19 696.16 341.21 690.11 C 343.02 679.29 341.23 668.37 340.41 657.55 C 338.52 645.09 338.08 632.37 334.88 620.14 C 333.75 615.51 333.36 610.52 334.99 605.97 C 337.36 599.22 340.76 592.88 343.06 586.10 C 344.90 580.48 346.95 574.93 349.66 569.66 C 351.80 565.68 352.17 561.12 352.06 556.68 C 348.23 564.18 345.74 572.30 341.75 579.72 C 338.44 585.90 336.63 592.70 334.17 599.23 C 332.58 603.66 330.59 608.18 330.98 613.00 C 331.16 617.43 333.47 621.75 332.32 626.21 C 329.73 637.61 320.89 646.13 317.10 657.05 C 312.84 669.67 307.37 682.41 308.03 696.01 C 308.55 704.01 309.50 712.02 311.34 719.83 C 312.07 723.20 314.76 725.60 317.24 727.79 C 322.83 732.46 329.22 736.00 335.46 739.71 C 333.38 741.47 331.07 743.50 328.11 742.95 C 315.54 741.84 303.85 736.71 291.88 733.11 C 275.49 728.14 258.23 727.73 241.28 726.59 C 233.20 725.27 225.03 724.80 216.88 724.20 C 211.42 723.82 206.07 725.15 200.68 725.72 C 193.50 726.49 186.42 724.05 180.10 720.88 C 165.48 712.86 152.60 701.36 143.92 687.05 C 141.90 683.66 139.34 680.26 139.01 676.22 C 140.25 673.07 143.43 670.39 146.98 670.90 C 152.94 671.35 158.71 673.15 164.45 674.70 C 170.56 676.83 176.85 678.48 182.71 681.28 C 185.70 682.61 188.92 684.15 192.27 683.27 C 198.55 681.86 205.14 682.41 211.27 680.29 C 214.02 679.45 216.91 678.62 219.81 679.11 C 225.28 679.95 229.98 683.19 235.29 684.53 C 240.06 685.35 244.92 685.00 249.73 685.40 C 256.17 685.99 262.70 684.30 269.06 685.92 C 273.93 687.17 278.93 688.87 282.83 692.15 C 286.80 695.67 284.66 701.48 283.93 705.93 C 278.21 706.19 272.49 705.90 266.78 705.60 C 260.17 705.63 253.57 706.30 246.96 706.07 C 237.71 706.07 229.15 702.04 220.05 700.95 C 212.50 700.13 205.66 696.15 198.01 695.96 C 189.80 695.85 181.75 691.84 173.55 694.21 C 182.10 697.90 191.20 700.61 200.48 701.61 C 206.70 702.39 212.19 705.75 218.36 706.76 C 229.33 709.69 240.70 710.46 252.00 710.93 C 262.04 710.30 272.20 709.02 282.21 710.75 C 286.23 711.39 289.84 713.36 293.54 714.96 C 293.03 711.20 290.29 708.57 288.25 705.61 C 287.13 700.23 289.42 694.89 290.62 689.70 C 292.90 680.14 297.49 671.32 299.74 661.75 C 301.30 655.06 303.47 648.52 304.79 641.77 C 306.47 633.31 307.24 624.72 308.24 616.17 C 309.12 608.34 312.32 600.90 312.33 592.96 C 312.29 583.59 312.63 574.13 314.94 565.00 C 316.40 559.12 317.35 553.07 316.68 547.00 C 309.88 546.93 302.93 546.35 296.32 548.27 C 285.38 551.40 274.51 554.77 263.47 557.50 C 256.59 559.15 250.10 562.46 242.95 562.88 C 237.40 563.20 231.83 562.77 226.29 563.38 C 219.58 564.15 212.69 564.60 206.07 562.92 C 193.82 559.90 181.73 556.29 169.75 552.36 C 163.83 550.70 157.91 548.81 151.78 548.09 C 149.92 548.01 147.62 547.63 146.24 549.22 C 142.67 553.02 141.01 558.12 138.80 562.75 C 135.21 571.61 129.40 579.26 124.20 587.20 C 121.02 591.97 118.07 596.93 114.21 601.20 C 112.08 603.74 109.58 606.17 108.47 609.37 C 108.28 611.42 109.03 613.41 109.48 615.39 C 111.01 620.70 111.52 626.27 113.54 631.44 C 117.26 641.00 121.39 650.40 125.04 659.99 C 129.01 669.91 132.30 680.17 137.50 689.54 C 144.42 699.69 151.63 709.97 161.61 717.37 C 167.76 721.74 175.21 724.25 180.44 729.89 C 177.28 731.90 173.77 733.67 169.92 733.55 C 163.08 733.36 156.44 731.49 149.74 730.28 C 142.30 728.96 135.12 726.40 127.60 725.45 C 118.33 724.14 108.96 724.11 99.65 723.36 C 94.06 722.98 88.71 725.48 83.11 724.86 C 73.41 723.90 63.49 723.88 54.14 720.80 C 48.94 719.01 43.51 717.85 37.99 717.95 C 29.69 718.04 21.54 714.59 13.25 716.31 C 8.84 717.72 5.16 720.68 0.94 722.52 C 1.17 719.99 0.49 717.10 1.81 714.84 C 5.77 710.44 11.70 708.57 17.27 707.16 C 22.64 705.68 28.04 707.59 33.23 708.90 C 32.97 705.67 32.99 702.30 31.69 699.28 C 30.84 697.49 28.88 696.75 27.32 695.73 C 26.90 677.69 23.13 659.80 24.29 641.72 C 24.49 635.40 22.69 629.24 20.57 623.36 C 18.13 616.87 17.10 609.89 16.99 602.99 C 16.86 599.24 18.89 595.94 20.98 593.00 C 24.63 587.95 28.33 582.90 31.58 577.58 C 35.51 571.19 37.05 563.72 38.46 556.46 C 39.57 550.75 38.67 544.95 37.72 539.30 C 36.02 529.82 35.33 520.09 32.02 510.98 C 29.36 503.69 29.94 495.73 27.62 488.36 C 26.04 483.28 24.20 478.28 22.88 473.12 C 21.51 468.27 20.78 463.14 18.25 458.71 C 16.53 455.63 14.20 452.67 13.97 449.01 C 12.83 438.72 17.23 428.86 22.06 420.06 C 25.75 413.19 32.69 409.30 38.49 404.48 C 51.84 393.70 66.70 384.98 81.66 376.65 C 91.97 371.75 102.17 365.11 113.95 364.94 C 122.74 364.74 131.59 365.14 140.21 366.91 C 151.54 369.80 163.32 369.62 174.92 370.22 C 180.33 370.54 185.76 372.04 191.19 371.09 C 198.71 369.57 206.41 371.09 213.97 369.83 C 220.82 368.69 227.70 369.95 234.31 371.75 C 246.22 374.53 258.81 373.07 270.33 369.26 C 280.30 365.81 290.42 362.84 300.37 359.36 C 312.20 355.56 324.66 351.43 337.22 353.70 C 348.83 355.84 359.78 360.46 371.01 363.97 C 379.77 366.63 388.59 369.35 397.72 370.39 C 403.54 371.11 409.35 369.64 414.84 367.81 C 422.73 365.03 430.93 362.67 437.91 357.90 C 442.53 354.96 445.56 350.17 450.09 347.10 C 453.31 344.91 456.78 343.13 460.16 341.19 C 451.97 336.11 441.93 334.00 435.05 326.93 C 430.81 322.80 428.62 317.18 425.94 312.03 C 423.98 308.26 422.29 304.35 420.90 300.34 C 429.53 298.11 437.44 292.07 446.70 293.20 C 453.76 294.08 460.81 296.27 466.76 300.25 C 473.96 305.26 477.30 313.71 482.56 320.43 C 486.07 324.92 489.63 329.36 493.20 333.80 C 498.15 339.98 504.96 344.21 511.48 348.52 C 515.61 351.10 519.95 353.93 524.98 354.09 C 532.80 354.54 540.14 351.31 547.63 349.63 C 552.43 348.64 556.45 345.55 561.15 344.37 C 569.97 344.21 578.72 346.37 587.57 345.79 C 577.22 338.26 562.33 342.18 552.72 333.31 C 548.13 329.54 545.33 323.55 539.72 321.14 C 533.15 320.10 526.24 323.60 522.56 329.06 C 525.94 328.32 529.22 326.92 532.71 326.73 C 536.44 326.99 538.88 330.22 541.23 332.76 C 538.42 334.86 535.26 338.08 531.41 336.70 C 524.67 334.40 519.26 328.57 511.68 328.79 C 516.11 333.01 521.26 336.39 526.49 339.54 C 529.01 341.01 531.83 342.49 534.86 342.02 C 538.62 341.40 541.51 338.62 545.07 337.45 C 548.61 337.30 551.45 339.80 553.49 342.44 C 547.80 345.08 541.85 347.10 535.83 348.83 C 531.92 349.87 527.61 350.80 523.71 349.27 C 511.56 343.85 503.08 333.28 493.71 324.28 C 489.31 320.02 486.54 314.48 484.01 308.99 C 481.80 304.46 479.85 299.44 475.61 296.39 C 471.18 293.21 466.21 290.82 461.13 288.88 C 455.17 286.61 448.65 286.63 442.41 287.38 C 436.36 288.15 430.24 288.70 424.36 290.37 C 413.47 293.58 402.41 297.24 390.94 297.13 C 384.72 297.27 380.12 292.47 374.50 290.60 C 368.68 288.68 363.03 286.30 357.64 283.38 C 346.88 278.11 337.72 270.07 329.92 261.06 C 325.62 256.03 320.65 251.54 317.08 245.92 C 309.70 234.39 303.00 222.34 294.19 211.81 C 283.60 200.99 269.02 195.79 255.65 189.37 C 245.01 183.93 234.24 177.80 226.49 168.50 C 216.11 155.34 207.75 139.88 206.14 122.94 C 205.58 113.70 205.42 103.98 209.43 95.40 M 436.03 299.75 C 442.39 308.67 448.82 317.66 456.84 325.17 C 460.44 327.98 463.21 332.22 467.94 333.23 C 470.84 333.90 474.25 336.08 476.99 333.91 C 476.88 333.57 476.64 332.89 476.53 332.55 C 473.07 330.32 469.05 328.92 466.13 325.91 C 461.03 321.64 457.38 315.96 452.32 311.65 C 447.17 307.32 443.34 300.58 436.03 299.75 M 80.59 567.60 C 79.38 572.22 79.46 577.15 77.60 581.62 C 74.63 589.58 68.45 595.69 62.30 601.29 C 57.24 605.69 50.17 607.58 46.09 613.11 C 43.21 616.77 44.06 621.68 43.95 626.00 C 44.22 634.29 43.63 642.59 44.25 650.87 C 45.19 660.07 46.10 669.29 46.62 678.52 C 49.01 685.94 51.58 693.51 55.97 700.03 C 60.45 706.68 68.21 709.66 75.29 712.67 C 79.76 714.45 84.12 716.77 88.99 717.25 C 88.97 716.49 88.92 714.96 88.90 714.20 C 82.25 709.38 74.20 707.12 67.45 702.53 C 58.14 695.95 53.89 685.02 48.77 675.30 C 55.48 674.40 62.22 673.71 69.00 673.98 C 78.25 674.30 87.67 673.12 96.78 675.25 C 99.94 675.90 102.39 678.21 104.33 680.68 C 111.30 689.11 113.54 700.24 119.97 709.04 C 110.85 707.65 101.70 706.46 92.54 705.34 C 90.51 704.99 88.48 705.43 86.52 705.93 C 92.16 711.29 100.32 709.38 107.28 710.67 C 113.83 711.86 120.37 713.07 126.94 714.07 C 123.81 709.73 121.79 704.76 120.37 699.63 C 117.56 689.34 111.86 680.23 107.33 670.67 C 102.33 661.32 98.44 651.45 94.27 641.71 C 90.60 632.93 84.34 625.65 79.42 617.59 C 78.40 615.82 77.48 613.93 77.21 611.89 C 77.43 609.04 78.83 606.47 79.81 603.84 C 82.78 596.19 85.95 588.45 86.36 580.16 C 87.48 574.68 86.06 569.23 84.67 563.96 C 83.27 565.12 81.81 566.23 80.59 567.60 M 545.18 728.27 C 545.68 728.77 545.68 728.77 545.18 728.27 M 542.18 728.91 C 541.97 729.20 541.54 729.77 541.33 730.06 C 542.12 733.17 545.52 728.32 542.18 728.91 M 49.01 753.95 C 42.10 753.67 36.10 757.46 30.01 760.13 C 27.08 761.38 24.70 763.54 22.81 766.08 C 29.88 763.17 36.58 758.90 44.38 758.28 C 53.47 756.71 62.52 759.76 71.61 758.59 C 75.90 758.21 80.14 759.11 84.38 759.64 C 74.20 752.01 60.90 753.89 49.01 753.95 M 369.56 761.61 C 372.98 761.21 376.56 760.76 379.84 762.14 C 388.17 765.35 395.71 770.21 403.62 774.31 C 410.35 777.62 416.25 782.30 422.32 786.65 C 424.58 788.49 427.65 787.77 430.33 787.85 C 417.65 780.46 405.50 772.19 393.56 763.69 C 388.13 761.06 383.71 755.14 377.10 756.11 C 373.60 756.11 371.47 759.13 369.56 761.61 M 482.93 758.96 C 477.19 763.20 470.76 766.46 464.22 769.27 C 459.52 771.29 454.55 769.28 449.84 768.43 C 442.79 767.26 436.35 763.98 430.01 760.84 C 430.89 761.89 431.70 763.05 432.82 763.90 C 438.05 766.94 443.89 768.66 449.63 770.44 C 455.39 772.84 462.09 772.31 467.70 769.71 C 476.17 765.65 484.88 761.89 492.53 756.34 C 489.23 756.71 485.67 756.87 482.93 758.96 M 422.47 757.97 C 424.48 759.54 426.88 760.46 429.38 760.93 C 427.31 759.45 424.93 758.53 422.47 757.97 M 511.03 758.83 C 513.27 760.93 515.82 762.70 518.65 763.93 C 522.38 765.51 524.99 768.86 528.82 770.26 C 534.27 772.37 538.91 776.05 544.32 778.24 C 541.62 775.67 538.59 773.51 535.41 771.59 C 527.71 766.61 519.74 761.83 511.03 758.83 M 339.50 766.29 C 343.05 769.44 348.18 768.74 352.34 770.57 C 357.72 772.13 362.17 775.83 367.59 777.26 C 371.83 778.55 375.80 780.88 380.34 781.03 C 375.87 778.40 370.68 777.44 366.09 775.08 C 357.69 771.00 349.08 766.40 339.50 766.29 M 101.58 772.81 C 93.99 774.59 86.44 776.63 78.73 777.83 C 75.60 778.27 72.58 777.04 69.48 776.86 C 58.75 776.77 48.32 781.54 40.92 789.23 C 44.93 787.40 48.76 785.09 53.06 783.95 C 57.58 782.55 62.36 783.12 67.02 782.89 C 76.97 782.49 85.96 776.91 95.99 777.03 C 99.67 777.09 103.35 776.97 107.02 776.95 C 111.69 776.82 115.74 779.46 120.07 780.79 C 128.21 783.55 137.31 782.64 144.96 786.97 C 150.68 789.24 156.40 791.80 162.47 792.94 C 161.68 792.12 160.99 791.11 159.83 790.81 C 147.96 787.26 136.96 781.13 127.09 773.69 C 127.23 775.57 127.41 777.46 127.59 779.36 C 121.21 779.31 115.30 776.68 109.40 774.58 C 106.89 773.72 104.33 772.07 101.58 772.81 M 225.80 779.80 C 218.93 781.52 211.40 783.31 206.61 788.96 C 212.46 785.85 218.72 783.56 225.21 782.25 C 230.20 781.34 235.33 781.78 240.29 780.66 C 235.54 779.81 230.60 778.51 225.80 779.80 M 545.30 779.07 C 545.33 782.40 548.32 777.61 545.30 779.07 M 38.27 791.27 C 38.78 791.77 38.78 791.77 38.27 791.27 M 162.71 792.18 C 162.87 792.79 163.19 794.01 163.35 794.63 C 168.80 796.55 174.43 797.89 180.12 798.87 C 174.58 796.01 168.67 793.97 162.71 792.18 Z" />
<path fill="#000000" opacity="1.00" d=" M 568.44 130.50 C 572.04 129.57 576.72 129.24 579.21 132.59 C 574.61 137.23 568.19 139.15 563.10 143.10 C 555.39 149.03 546.40 153.59 540.35 161.43 C 535.77 167.10 534.00 174.30 530.58 180.62 C 527.34 186.66 524.89 193.21 520.48 198.53 C 513.02 207.35 504.25 214.91 496.04 223.01 C 489.82 228.94 482.65 233.72 475.58 238.55 C 469.46 242.71 462.13 244.35 455.06 246.11 C 448.07 247.76 441.80 251.51 434.79 253.13 C 436.76 248.75 438.97 244.47 441.36 240.31 C 443.53 236.10 448.16 234.33 451.98 232.00 C 460.60 226.84 469.90 222.89 478.34 217.39 C 487.96 211.23 497.25 204.43 505.57 196.58 C 512.91 189.74 516.30 180.04 522.12 172.06 C 525.70 167.32 528.78 162.19 532.76 157.76 C 536.71 153.73 540.60 149.61 544.94 145.98 C 552.34 140.25 559.46 133.69 568.44 130.50 M 475.13 230.18 C 468.38 233.27 461.20 235.86 455.70 241.06 C 460.69 239.31 465.57 237.28 470.53 235.45 C 474.84 233.66 479.54 231.92 482.36 227.96 C 479.87 228.44 477.44 229.15 475.13 230.18 Z" />
<path fill="#000000" opacity="1.00" d=" M 656.34 175.41 C 660.35 171.63 662.06 164.98 667.95 163.63 C 668.64 168.13 668.69 173.08 665.88 176.93 C 662.13 182.12 657.35 186.68 651.70 189.75 C 646.82 192.45 642.35 195.84 637.42 198.48 C 632.15 201.36 626.53 203.89 622.21 208.20 C 619.37 210.83 617.62 214.33 615.59 217.57 C 609.17 227.65 599.05 234.70 592.84 244.94 C 588.99 249.69 586.49 255.26 583.31 260.42 C 577.90 267.09 570.57 272.00 563.09 276.09 C 554.40 280.23 545.80 285.28 536.12 286.61 C 523.06 282.36 512.02 272.46 498.03 270.89 C 490.08 269.82 482.62 275.08 474.69 273.27 C 465.87 271.18 457.34 266.47 448.01 267.80 C 440.29 268.85 432.48 269.58 424.70 268.68 C 428.78 261.74 436.55 257.93 444.10 256.03 C 457.54 254.59 469.49 262.20 480.95 268.07 C 484.15 270.05 487.76 268.39 490.77 266.89 C 499.63 262.52 508.80 258.85 517.87 254.94 C 526.51 251.23 535.99 249.76 544.35 245.36 C 549.50 242.67 554.60 239.80 559.16 236.18 C 563.31 232.86 566.25 228.34 568.80 223.73 C 573.13 215.84 578.50 208.15 586.07 203.05 C 592.43 199.00 599.54 196.17 605.62 191.65 C 609.12 188.93 611.70 185.24 615.07 182.36 C 616.59 187.26 615.04 192.81 611.25 196.25 C 606.11 200.93 599.69 203.90 594.29 208.26 C 588.68 212.83 584.34 218.80 581.36 225.37 C 578.59 231.50 574.34 236.89 569.23 241.24 C 565.51 244.20 560.81 245.46 556.69 247.73 C 546.73 252.48 537.33 258.26 527.81 263.80 C 524.18 265.91 521.10 268.86 518.77 272.35 C 520.43 271.88 522.12 271.43 523.68 270.65 C 532.40 266.02 540.88 260.88 549.95 256.94 C 557.91 253.03 566.52 250.18 573.55 244.61 C 577.57 241.31 581.92 238.29 585.19 234.19 C 590.52 227.44 595.88 220.69 600.49 213.41 C 602.50 210.17 605.33 207.55 608.57 205.56 C 616.82 200.32 625.40 195.62 634.09 191.15 C 642.26 187.11 649.79 181.74 656.34 175.41 M 565.25 257.31 C 560.27 260.02 554.98 262.09 549.93 264.66 C 541.84 268.55 532.96 270.14 524.29 272.17 C 524.23 273.13 524.17 274.09 524.11 275.06 C 529.41 275.02 534.82 274.66 539.80 272.70 C 546.84 269.88 553.70 266.63 560.69 263.68 C 564.74 261.93 569.02 260.31 572.25 257.20 C 574.28 255.25 575.22 252.53 576.28 250.00 C 572.60 252.44 569.14 255.21 565.25 257.31 Z" />
<path fill="#000000" opacity="1.00" d=" M 680.45 238.56 C 687.35 237.36 693.88 234.50 700.90 233.96 C 700.82 234.60 700.66 235.89 700.58 236.53 C 695.40 239.40 690.63 243.18 684.84 244.80 C 678.18 246.70 671.54 248.93 664.60 249.57 C 654.09 250.58 643.56 252.00 632.98 251.69 C 625.52 251.66 618.03 250.27 610.60 251.56 C 603.62 252.72 596.55 253.11 589.50 253.60 C 592.86 249.31 597.16 245.83 601.62 242.74 C 608.42 239.12 616.30 237.33 624.01 238.15 C 628.02 238.58 632.03 238.98 636.06 239.13 C 642.85 239.40 649.46 241.24 656.24 241.54 C 664.38 241.40 672.58 240.80 680.45 238.56 Z" />
<path fill="#000000" opacity="1.00" d=" M 555.27 263.26 C 555.77 263.76 555.77 263.76 555.27 263.26 Z" />
<path fill="#000000" opacity="1.00" d=" M 465.27 327.28 C 465.76 327.77 465.76 327.77 465.27 327.28 Z" />
<path fill="#000000" opacity="1.00" d=" M 605.46 370.32 C 610.39 369.37 614.60 373.89 615.57 378.38 C 617.18 385.38 620.97 391.66 622.21 398.76 C 623.13 403.69 624.59 408.73 623.64 413.78 C 622.65 418.94 620.97 424.03 618.08 428.46 C 613.66 425.48 609.41 422.14 605.95 418.07 C 603.53 415.30 604.17 411.39 604.03 408.02 C 604.29 401.18 602.90 394.42 603.27 387.58 C 606.50 387.29 609.76 386.81 612.69 385.34 C 608.32 384.86 603.64 385.54 599.61 383.44 C 595.59 381.45 590.80 379.22 589.67 374.43 C 594.64 372.10 599.98 370.68 605.46 370.32 Z" />
<path fill="#000000" opacity="1.00" d=" M 570.26 390.22 C 575.51 385.36 581.30 381.02 587.74 377.87 C 588.97 384.15 589.93 390.48 591.35 396.72 C 592.03 400.70 593.27 404.72 592.79 408.79 C 591.88 412.60 589.73 416.24 586.37 418.37 C 584.32 413.71 583.40 408.46 580.06 404.48 C 578.04 409.16 580.45 413.96 581.39 418.58 C 582.61 424.32 584.40 430.09 584.03 436.03 C 583.96 438.49 582.22 440.41 580.98 442.40 C 578.74 436.78 576.78 431.04 574.82 425.32 C 573.19 420.57 573.01 414.63 568.22 411.78 C 565.99 422.46 570.21 432.85 574.80 442.28 C 577.43 447.40 578.65 453.64 575.80 458.96 C 574.72 461.07 572.83 465.22 569.93 463.06 C 565.31 460.41 564.60 454.80 565.00 449.98 C 565.64 441.93 561.34 434.73 560.29 426.92 C 560.06 422.46 559.48 417.57 561.45 413.42 C 568.63 404.69 582.39 402.90 587.08 391.88 C 584.16 392.73 581.56 394.30 579.08 395.99 C 573.87 399.44 567.68 401.61 563.51 406.44 C 561.92 408.33 560.26 410.19 558.11 411.44 C 558.17 407.21 558.77 402.77 561.21 399.19 C 563.64 395.66 567.16 393.12 570.26 390.22 Z" />
<path fill="#000000" opacity="1.00" d=" M 525.79 670.64 C 526.60 670.69 528.23 670.79 529.04 670.83 C 532.02 677.20 532.80 684.51 531.29 691.37 C 529.81 698.28 527.33 704.92 525.60 711.77 C 523.84 717.17 521.53 723.38 516.04 725.99 C 513.56 723.01 513.15 718.85 511.42 715.43 C 507.44 706.99 503.91 698.28 501.86 689.15 C 500.99 685.17 501.63 681.07 502.26 677.11 C 502.34 675.02 504.36 673.79 506.14 673.22 C 509.67 673.00 511.66 676.44 512.76 679.29 C 516.13 687.27 514.02 696.14 516.24 704.37 C 519.59 702.73 521.48 699.40 523.57 696.48 C 525.12 694.28 526.26 691.74 526.31 689.02 C 526.62 682.89 525.86 676.77 525.79 670.64 Z" />
<path fill="#000000" opacity="1.00" d=" M 7.78 683.79 C 11.32 680.76 16.19 678.93 20.85 680.09 C 21.85 686.46 22.71 692.94 22.45 699.40 C 19.90 701.53 16.53 702.22 13.53 703.49 C 9.25 704.98 5.54 707.63 1.74 710.03 C 0.83 700.89 3.36 691.72 7.78 683.79 Z" />
<path fill="#000000" opacity="1.00" d=" M 28.27 762.27 C 28.77 762.76 28.77 762.76 28.27 762.27 Z" />
</g>
</svg>
